<svg width="12" height="8" viewBox="0 0 12 8" fill="none" xmlns="http://www.w3.org/2000/svg">
<path d="M5.99733 5.15432L10.3071 0.671365C10.4255 0.547927 10.5838 0.480021 10.7526 0.480021C10.9214 0.480021 11.0796 0.547926 11.1982 0.671365L11.5756 1.06419C11.6944 1.18743 11.7598 1.35218 11.7598 1.52774C11.7598 1.7033 11.6944 1.86785 11.5756 1.99119L6.44446 7.32887C6.32551 7.4527 6.16657 7.5205 5.99761 7.52002C5.8279 7.5205 5.66915 7.45279 5.55011 7.32887L0.423899 1.99616C0.30514 1.87282 0.239765 1.70827 0.239765 1.53261C0.239765 1.35705 0.30514 1.1925 0.423899 1.06906L0.801343 0.676334C1.04701 0.420786 1.44693 0.420786 1.6925 0.676334L5.99733 5.15432Z" fill="#003968"/>
</svg>
