<svg width="41" height="41" viewBox="0 0 41 41" fill="none" xmlns="http://www.w3.org/2000/svg">
<g clip-path="url(#clip0_135_2973)">
<path d="M33.52 10.7244V30.2756C33.52 31.1399 33.1767 31.9687 32.5656 32.5798C31.9545 33.1909 31.1257 33.5342 30.2615 33.5342H13.9688C13.1045 33.5342 12.2757 33.1909 11.6646 32.5798C11.0535 31.9687 10.7102 31.1399 10.7102 30.2756V10.7244C10.7102 9.86015 11.0535 9.03132 11.6646 8.42023C12.2757 7.80913 13.1045 7.46582 13.9688 7.46582H30.2615C31.1257 7.46582 31.9545 7.80913 32.5656 8.42023C33.1767 9.03132 33.52 9.86015 33.52 10.7244Z" stroke="#D4AF37" stroke-width="2.34615" stroke-linecap="round" stroke-linejoin="round"/>
<path d="M17.2278 27.0173H27.0034" stroke="#D4AF37" stroke-width="2.34615" stroke-linecap="round" stroke-linejoin="round"/>
<path d="M18.8561 18.8706C18.8561 19.7348 19.1994 20.5637 19.8105 21.1747C20.4216 21.7858 21.2504 22.1292 22.1146 22.1292C22.9788 22.1292 23.8077 21.7858 24.4188 21.1747C25.0299 20.5637 25.3732 19.7348 25.3732 18.8706C25.3732 18.0064 25.0299 17.1776 24.4188 16.5665C23.8077 15.9554 22.9788 15.6121 22.1146 15.6121C21.2504 15.6121 20.4216 15.9554 19.8105 16.5665C19.1994 17.1776 18.8561 18.0064 18.8561 18.8706Z" stroke="#D4AF37" stroke-width="2.34615" stroke-linecap="round" stroke-linejoin="round"/>
<path d="M7.45215 13.9827H12.34" stroke="#D4AF37" stroke-width="2.34615" stroke-linecap="round" stroke-linejoin="round"/>
<path d="M7.45215 20.5H12.34" stroke="#D4AF37" stroke-width="2.34615" stroke-linecap="round" stroke-linejoin="round"/>
<path d="M7.45215 27.0173H12.34" stroke="#D4AF37" stroke-width="2.34615" stroke-linecap="round" stroke-linejoin="round"/>
</g>
<defs>
<clipPath id="clip0_135_2973">
<rect width="39.1026" height="39.1026" fill="white" transform="translate(0.935059 0.94873)"/>
</clipPath>
</defs>
</svg>
