<svg width="63" height="65" viewBox="0 0 63 65" fill="none" xmlns="http://www.w3.org/2000/svg">
<path d="M37.2857 1.83923V14.1821C37.2857 15.0005 37.6108 15.7853 38.1895 16.364C38.7682 16.9427 39.553 17.2678 40.3714 17.2678H52.7143" stroke="#003968" stroke-width="3" stroke-linecap="round" stroke-linejoin="round"/>
<path d="M22.4082 20.2678H25.4389M22.4082 32.5535H40.5919M22.4082 44.8392H40.5919M46.6531 57.1249H16.347C14.7395 57.1249 13.1978 56.4778 12.0611 55.3257C10.9244 54.1737 10.2858 52.6113 10.2858 50.9821V7.98209C10.2858 6.3529 10.9244 4.79044 12.0611 3.63843C13.1978 2.48643 14.7395 1.83923 16.347 1.83923H37.5613L52.7144 17.1964V50.9821C52.7144 52.6113 52.0758 54.1737 50.9391 55.3257C49.8024 56.4778 48.2607 57.1249 46.6531 57.1249Z" stroke="#003968" stroke-width="3" stroke-linecap="round" stroke-linejoin="round"/>
</svg>
