<svg width="24" height="26" viewBox="0 0 24 26" fill="none" xmlns="http://www.w3.org/2000/svg">
<path d="M14.2041 1.43872V6.14076C14.2041 6.45253 14.3279 6.75152 14.5484 6.97197C14.7689 7.19242 15.0678 7.31627 15.3796 7.31627H20.0817" stroke="#003968" stroke-width="2.2" stroke-linecap="round" stroke-linejoin="round"/>
<path d="M8.53629 8.45913H9.69081M8.53629 13.1394H15.4634M8.53629 17.8197H15.4634M17.7724 22.4999H6.22725C5.61486 22.4999 5.02754 22.2534 4.59451 21.8145C4.16149 21.3757 3.91821 20.7805 3.91821 20.1598V3.77886C3.91821 3.15821 4.16149 2.56299 4.59451 2.12413C5.02754 1.68527 5.61486 1.43872 6.22725 1.43872H14.3089L20.0815 7.28906V20.1598C20.0815 20.7805 19.8382 21.3757 19.4052 21.8145C18.9721 22.2534 18.3848 22.4999 17.7724 22.4999Z" stroke="#003968" stroke-width="2.2" stroke-linecap="round" stroke-linejoin="round"/>
</svg>
