<svg width="63" height="63" viewBox="0 0 63 63" fill="none" xmlns="http://www.w3.org/2000/svg">
<path d="M20.1472 35.346C19.7018 35.2468 19.2142 35.3545 18.9315 35.7126L10.7151 46.1205C10.5758 46.2969 10.5 46.5152 10.5 46.7401V51.5C10.5 52.0523 10.9477 52.5 11.5 52.5H54.125C54.6773 52.5 55.125 52.9477 55.125 53.5V54.125C55.125 54.6773 54.6773 55.125 54.125 55.125H9.1875C8.8394 55.125 8.50556 54.9867 8.25942 54.7406C8.01328 54.4944 7.875 54.1606 7.875 53.8125V10.1875C7.875 9.63522 8.32272 9.1875 8.875 9.1875H9.5C10.0523 9.1875 10.5 9.63522 10.5 10.1875V39.2771C10.5 40.2256 11.6971 40.6412 12.2849 39.8968L17.0978 33.8007C17.3402 33.4937 17.3702 33.0766 17.2509 32.7041C17.1363 32.3465 17.0732 31.9732 17.0643 31.5956C17.0503 31.0033 17.1702 30.4155 17.415 29.876C17.6597 29.3365 18.0231 28.8591 18.478 28.4796C18.9329 28.1 19.4676 27.828 20.0422 27.6838C20.6169 27.5395 21.2166 27.5269 21.7968 27.6466C22.3771 27.7664 22.9228 28.0156 23.3933 28.3756C23.8638 28.7356 24.2471 29.1972 24.5144 29.7259C24.6751 30.0436 24.7914 30.3806 24.8611 30.7275C24.9445 31.1428 25.2061 31.5186 25.608 31.6525L32.9716 34.106C33.3741 34.2401 33.8094 34.0956 34.1254 33.8126C34.5675 33.4167 35.0959 33.1239 35.6725 32.9598C36.2491 32.7958 36.8525 32.7667 37.4367 32.8706C37.8544 32.9449 38.3006 32.8386 38.5723 32.5127L46.0373 23.5553C46.3086 23.2298 46.3331 22.7722 46.1851 22.375C45.9464 21.7346 45.8771 21.0389 45.9901 20.3567C46.1419 19.4403 46.6128 18.6071 47.3195 18.0043C48.0262 17.4015 48.9233 17.068 49.8522 17.0626C50.781 17.0573 51.6819 17.3806 52.3954 17.9752C53.109 18.5699 53.5894 19.3976 53.7517 20.3122C53.9139 21.2268 53.7476 22.1693 53.2822 22.9732C52.8167 23.777 52.0821 24.3904 51.2081 24.705C50.5574 24.9391 49.8606 24.9964 49.1876 24.8772C48.7703 24.8032 48.3247 24.9098 48.0533 25.2354L40.5874 34.1949C40.3162 34.5204 40.2917 34.9777 40.4395 35.3747C40.5665 35.716 40.646 36.0743 40.6747 36.4396C40.722 37.0407 40.6306 37.6446 40.4075 38.2048C40.1845 38.765 39.8358 39.2664 39.3884 39.6705C38.9409 40.0746 38.4066 40.3706 37.8267 40.5356C37.2467 40.7005 36.6367 40.7301 36.0435 40.622C35.4503 40.5139 34.8899 40.2711 34.4054 39.9122C33.9209 39.5532 33.5254 39.0879 33.2492 38.5519C33.0814 38.2262 32.9604 37.8797 32.8887 37.5228C32.8054 37.1073 32.5438 36.7313 32.1418 36.5974L24.7784 34.144C24.3759 34.0099 23.9406 34.1544 23.6246 34.4374C23.153 34.8597 22.5837 35.1643 21.9632 35.3208C21.3647 35.4717 20.7427 35.4787 20.1472 35.346Z" fill="#003968"/>
</svg>
