<svg width="37" height="37" viewBox="0 0 37 37" fill="none" xmlns="http://www.w3.org/2000/svg">
<g clip-path="url(#clip0_135_2987)">
<path d="M6.49405 11.0055H10.9908C11.3884 11.0055 11.7696 10.8476 12.0507 10.5665C12.3319 10.2854 12.4898 9.9041 12.4898 9.50656V8.00763C12.4898 7.21255 12.8056 6.45003 13.3678 5.88782C13.93 5.32561 14.6926 5.00977 15.4876 5.00977C16.2827 5.00977 17.0452 5.32561 17.6074 5.88782C18.1697 6.45003 18.4855 7.21255 18.4855 8.00763V9.50656C18.4855 9.9041 18.6434 10.2854 18.9245 10.5665C19.2056 10.8476 19.5869 11.0055 19.9844 11.0055H24.4812C24.8788 11.0055 25.26 11.1634 25.5411 11.4445C25.8222 11.7256 25.9802 12.1069 25.9802 12.5044V17.0012C25.9802 17.3988 26.1381 17.78 26.4192 18.0611C26.7003 18.3422 27.0816 18.5002 27.4791 18.5002H28.978C29.7731 18.5002 30.5356 18.816 31.0978 19.3782C31.66 19.9404 31.9759 20.7029 31.9759 21.498C31.9759 22.2931 31.66 23.0556 31.0978 23.6178C30.5356 24.18 29.7731 24.4959 28.978 24.4959H27.4791C27.0816 24.4959 26.7003 24.6538 26.4192 24.9349C26.1381 25.216 25.9802 25.5973 25.9802 25.9948V30.4916C25.9802 30.8891 25.8222 31.2704 25.5411 31.5515C25.26 31.8326 24.8788 31.9905 24.4812 31.9905H19.9844C19.5869 31.9905 19.2056 31.8326 18.9245 31.5515C18.6434 31.2704 18.4855 30.8891 18.4855 30.4916V28.9927C18.4855 28.1976 18.1697 27.4351 17.6074 26.8729C17.0452 26.3107 16.2827 25.9948 15.4876 25.9948C14.6926 25.9948 13.93 26.3107 13.3678 26.8729C12.8056 27.4351 12.4898 28.1976 12.4898 28.9927V30.4916C12.4898 30.8891 12.3319 31.2704 12.0507 31.5515C11.7696 31.8326 11.3884 31.9905 10.9908 31.9905H6.49405C6.09651 31.9905 5.71525 31.8326 5.43414 31.5515C5.15304 31.2704 4.99512 30.8891 4.99512 30.4916V25.9948C4.99512 25.5973 5.15304 25.216 5.43414 24.9349C5.71525 24.6538 6.09651 24.4959 6.49405 24.4959H7.99298C8.78806 24.4959 9.55058 24.18 10.1128 23.6178C10.675 23.0556 10.9908 22.2931 10.9908 21.498C10.9908 20.7029 10.675 19.9404 10.1128 19.3782C9.55058 18.816 8.78806 18.5002 7.99298 18.5002H6.49405C6.09651 18.5002 5.71525 18.3422 5.43414 18.0611C5.15304 17.78 4.99512 17.3988 4.99512 17.0012V12.5044C4.99512 12.1069 5.15304 11.7256 5.43414 11.4445C5.71525 11.1634 6.09651 11.0055 6.49405 11.0055Z" stroke="#D4AF37" stroke-width="2.34615" stroke-linecap="round" stroke-linejoin="round"/>
</g>
<defs>
<clipPath id="clip0_135_2987">
<rect width="35.9744" height="35.9744" fill="white" transform="translate(0.499146 0.512695)"/>
</clipPath>
</defs>
</svg>
