<svg width="67" height="67" viewBox="0 0 67 67" fill="none" xmlns="http://www.w3.org/2000/svg">
<path d="M25.1251 13.9583C26.6059 13.9583 28.026 14.5466 29.0731 15.5936C30.1202 16.6407 30.7084 18.0609 30.7084 19.5416V36.2916C30.7084 45.0296 26.1022 50.7888 17.4285 52.9579C17.0719 53.0499 16.7006 53.0705 16.336 53.0184C15.9714 52.9664 15.6207 52.8427 15.3042 52.6545C14.9876 52.4663 14.7114 52.2173 14.4915 51.9219C14.2715 51.6265 14.1123 51.2905 14.0228 50.9332C13.9333 50.576 13.9153 50.2046 13.97 49.8403C14.0247 49.4761 14.1509 49.1264 14.3414 48.8111C14.5318 48.4959 14.7827 48.2215 15.0797 48.0037C15.3767 47.7859 15.7138 47.629 16.0717 47.5421C22.2887 45.9871 25.1251 42.4417 25.1251 36.2916V33.5H16.7501C15.3415 33.5004 13.9847 32.9684 12.9519 32.0106C11.919 31.0528 11.2864 29.74 11.1807 28.3354L11.1667 27.9166V19.5416C11.1667 18.0609 11.755 16.6407 12.8021 15.5936C13.8491 14.5466 15.2693 13.9583 16.7501 13.9583H25.1251ZM50.2501 13.9583C51.7309 13.9583 53.151 14.5466 54.1981 15.5936C55.2452 16.6407 55.8334 18.0609 55.8334 19.5416V36.2916C55.8334 45.0296 51.2272 50.7888 42.5535 52.9579C42.1969 53.0499 41.8256 53.0705 41.461 53.0184C41.0964 52.9664 40.7457 52.8427 40.4292 52.6545C40.1126 52.4663 39.8364 52.2173 39.6165 51.9219C39.3965 51.6265 39.2372 51.2905 39.1478 50.9332C39.0583 50.576 39.0403 50.2046 39.095 49.8403C39.1497 49.4761 39.2759 49.1264 39.4664 48.8111C39.6568 48.4959 39.9077 48.2215 40.2047 48.0037C40.5017 47.7859 40.8388 47.629 41.1967 47.5421C47.4137 45.9871 50.2501 42.4417 50.2501 36.2916V33.5H41.8751C40.4665 33.5004 39.1097 32.9684 38.0769 32.0106C37.044 31.0528 36.4114 29.74 36.3057 28.3354L36.2917 27.9166V19.5416C36.2917 18.0609 36.88 16.6407 37.9271 15.5936C38.9741 14.5466 40.3943 13.9583 41.8751 13.9583H50.2501Z" fill="#003968"/>
</svg>
