<svg width="24" height="25" viewBox="0 0 24 25" fill="none" xmlns="http://www.w3.org/2000/svg">
<path d="M12 15.5C13.6569 15.5 15 14.1569 15 12.5C15 10.8431 13.6569 9.5 12 9.5C10.3431 9.5 9 10.8431 9 12.5C9 14.1569 10.3431 15.5 12 15.5Z" stroke="#003968" stroke-width="2.2"/>
<path d="M13.765 2.652C13.398 2.5 12.932 2.5 12 2.5C11.068 2.5 10.602 2.5 10.235 2.652C9.9922 2.75251 9.77158 2.8999 9.58575 3.08572C9.39992 3.27155 9.25254 3.49218 9.15202 3.735C9.06002 3.958 9.02302 4.219 9.00902 4.598C9.00251 4.87193 8.92663 5.13973 8.78847 5.37635C8.6503 5.61298 8.45438 5.81069 8.21902 5.951C7.97983 6.08477 7.71061 6.15567 7.43655 6.15707C7.1625 6.15847 6.89257 6.09032 6.65202 5.959C6.31602 5.781 6.07302 5.683 5.83202 5.651C5.30634 5.58187 4.77472 5.72431 4.35402 6.047C4.04002 6.29 3.80602 6.693 3.34002 7.5C2.87402 8.307 2.64002 8.71 2.58902 9.105C2.55466 9.36545 2.57194 9.63012 2.63989 9.88389C2.70784 10.1377 2.82511 10.3756 2.98502 10.584C3.13302 10.776 3.34002 10.937 3.66102 11.139C4.13402 11.436 4.43802 11.942 4.43802 12.5C4.43802 13.058 4.13402 13.564 3.66102 13.86C3.34002 14.063 3.13202 14.224 2.98502 14.416C2.82511 14.6244 2.70784 14.8623 2.63989 15.1161C2.57194 15.3699 2.55466 15.6345 2.58902 15.895C2.64102 16.289 2.87402 16.693 3.33902 17.5C3.80602 18.307 4.03902 18.71 4.35402 18.953C4.56246 19.1129 4.80036 19.2302 5.05413 19.2981C5.3079 19.3661 5.57257 19.3834 5.83302 19.349C6.07302 19.317 6.31602 19.219 6.65202 19.041C6.89257 18.9097 7.1625 18.8415 7.43655 18.8429C7.71061 18.8443 7.97983 18.9152 8.21902 19.049C8.70202 19.329 8.98902 19.844 9.00902 20.402C9.02302 20.782 9.05902 21.042 9.15202 21.265C9.25254 21.5078 9.39992 21.7284 9.58575 21.9143C9.77158 22.1001 9.9922 22.2475 10.235 22.348C10.602 22.5 11.068 22.5 12 22.5C12.932 22.5 13.398 22.5 13.765 22.348C14.0078 22.2475 14.2285 22.1001 14.4143 21.9143C14.6001 21.7284 14.7475 21.5078 14.848 21.265C14.94 21.042 14.977 20.782 14.991 20.402C15.011 19.844 15.298 19.328 15.781 19.049C16.0202 18.9152 16.2894 18.8443 16.5635 18.8429C16.8375 18.8415 17.1075 18.9097 17.348 19.041C17.684 19.219 17.927 19.317 18.167 19.349C18.4275 19.3834 18.6921 19.3661 18.9459 19.2981C19.1997 19.2302 19.4376 19.1129 19.646 18.953C19.961 18.711 20.194 18.307 20.66 17.5C21.126 16.693 21.36 16.29 21.411 15.895C21.4454 15.6345 21.4281 15.3699 21.3602 15.1161C21.2922 14.8623 21.1749 14.6244 21.015 14.416C20.867 14.224 20.66 14.063 20.339 13.861C20.105 13.7184 19.9109 13.5187 19.775 13.2807C19.6391 13.0427 19.5658 12.7741 19.562 12.5C19.562 11.942 19.866 11.436 20.339 11.14C20.66 10.937 20.868 10.776 21.015 10.584C21.1749 10.3756 21.2922 10.1377 21.3602 9.88389C21.4281 9.63012 21.4454 9.36545 21.411 9.105C21.359 8.711 21.126 8.307 20.661 7.5C20.194 6.693 19.961 6.29 19.646 6.047C19.4376 5.88709 19.1997 5.76981 18.9459 5.70187C18.6921 5.63392 18.4275 5.61664 18.167 5.651C17.927 5.683 17.684 5.781 17.347 5.959C17.1066 6.09014 16.8369 6.1582 16.563 6.1568C16.2891 6.1554 16.0201 6.08459 15.781 5.951C15.5457 5.81069 15.3497 5.61298 15.2116 5.37635C15.0734 5.13973 14.9975 4.87193 14.991 4.598C14.977 4.218 14.941 3.958 14.848 3.735C14.7475 3.49218 14.6001 3.27155 14.4143 3.08572C14.2285 2.8999 14.0078 2.75251 13.765 2.652Z" stroke="#003968" stroke-width="2.2"/>
</svg>
