<svg width="41" height="41" viewBox="0 0 41 41" fill="none" xmlns="http://www.w3.org/2000/svg">
<path d="M33.7698 14.258L32.5119 12.0745C32.3554 11.8026 32.0974 11.604 31.7944 11.5223C31.4915 11.4407 31.1686 11.4827 30.8967 11.6392L23.3824 15.9924C23.3358 16.0193 23.2828 16.0335 23.229 16.0333C23.1751 16.0332 23.1222 16.0189 23.0757 15.9917C23.0292 15.9646 22.9907 15.9256 22.9641 15.8788C22.9374 15.832 22.9237 15.779 22.9242 15.7251L22.9303 7.05838C22.9303 6.7343 22.8015 6.42349 22.5724 6.19433C22.3432 5.96517 22.0324 5.83643 21.7083 5.83643H19.2644C18.9403 5.83643 18.6295 5.96517 18.4004 6.19433C18.1712 6.42349 18.0425 6.7343 18.0425 7.05838L18.0478 15.732C18.0483 15.7858 18.0345 15.8389 18.0079 15.8857C17.9813 15.9325 17.9428 15.9715 17.8963 15.9986C17.8497 16.0257 17.7969 16.0401 17.743 16.0402C17.6891 16.0403 17.6362 16.0262 17.5896 15.9993L10.0753 11.6461C9.80338 11.4896 9.48044 11.4476 9.17753 11.5292C8.87461 11.6109 8.61653 11.8095 8.46004 12.0814L7.20295 14.2656C7.12534 14.3999 7.07501 14.5481 7.05485 14.7019C7.03469 14.8557 7.0451 15.0119 7.08548 15.1616C7.12586 15.3114 7.19541 15.4516 7.29014 15.5744C7.38487 15.6972 7.50292 15.8 7.63751 15.8771L15.1594 20.2364C15.2053 20.2634 15.2434 20.3019 15.2699 20.3481C15.2964 20.3943 15.3103 20.4466 15.3103 20.4999C15.3103 20.5531 15.2964 20.6055 15.2699 20.6517C15.2434 20.6979 15.2053 20.7364 15.1594 20.7634L7.63751 25.1227C7.36753 25.28 7.17048 25.5374 7.08912 25.8391C7.00777 26.1408 7.04867 26.4624 7.20295 26.7342L8.4608 28.9176C8.61729 29.1895 8.87537 29.3882 9.17829 29.4698C9.4812 29.5514 9.80414 29.5094 10.0761 29.353L17.5903 24.9997C17.637 24.9728 17.6899 24.9587 17.7438 24.9588C17.7976 24.9589 17.8505 24.9733 17.897 25.0004C17.9435 25.0276 17.9821 25.0665 18.0087 25.1133C18.0353 25.1602 18.0491 25.2132 18.0486 25.267L18.0425 33.9414C18.0425 34.2655 18.1712 34.5763 18.4004 34.8054C18.6295 35.0346 18.9403 35.1634 19.2644 35.1634H21.7083C22.0324 35.1634 22.3432 35.0346 22.5724 34.8054C22.8015 34.5763 22.9303 34.2655 22.9303 33.9414L22.9249 25.2602C22.9244 25.2063 22.9382 25.1533 22.9648 25.1065C22.9914 25.0596 23.03 25.0207 23.0765 24.9935C23.123 24.9664 23.1759 24.952 23.2297 24.9519C23.2836 24.9518 23.3365 24.9659 23.3832 24.9929L30.8974 29.3461C31.1694 29.5025 31.4923 29.5446 31.7952 29.4629C32.0981 29.3813 32.3562 29.1827 32.5127 28.9108L33.7705 26.7273C33.8482 26.593 33.8985 26.4448 33.9186 26.291C33.9388 26.1372 33.9284 25.981 33.888 25.8313C33.8476 25.6815 33.7781 25.5413 33.6834 25.4185C33.5886 25.2957 33.4706 25.1929 33.336 25.1158L25.8141 20.7565C25.7682 20.7295 25.7301 20.6911 25.7036 20.6448C25.6771 20.5986 25.6632 20.5463 25.6632 20.493C25.6632 20.4398 25.6771 20.3874 25.7036 20.3412C25.7301 20.295 25.7682 20.2565 25.8141 20.2295L33.336 15.8702C33.6065 15.7132 33.8039 15.4556 33.8852 15.1535C33.9665 14.8515 33.925 14.5296 33.7698 14.258Z" stroke="#D4AF37" stroke-width="2.34615" stroke-linecap="round" stroke-linejoin="round"/>
</svg>
